<svg width="696" height="645" viewBox="0 0 696 645" fill="none" xmlns="http://www.w3.org/2000/svg">
<path d="M637.465 338.549C655.847 355.284 670.432 375.211 680.37 397.169C690.309 419.127 695.404 442.678 695.357 466.448C695.31 490.219 690.123 513.735 680.098 535.627C670.073 557.519 655.409 577.35 636.963 593.964C618.516 610.577 596.654 623.643 572.649 632.398C548.646 641.154 522.979 645.425 497.146 644.962C471.312 644.5 445.828 639.314 422.177 629.705C398.525 620.097 377.18 606.259 359.384 588.996L0.147757 251.39L278.28 0.942597L637.465 338.549Z" fill="url(#paint0_linear_45_172)" fill-opacity="0.1"/>
<defs>
<linearGradient id="paint0_linear_45_172" x1="624.341" y1="574.738" x2="268.904" y2="184.009" gradientUnits="userSpaceOnUse">
<stop stop-color="#28427B"/>
<stop offset="1" stop-color="#1E325C"/>
</linearGradient>
</defs>
</svg>
